<svg width="16" height="14" viewBox="0 0 18 16" fill="none" xmlns="http://www.w3.org/2000/svg">
<path d="M9.72183 1L17.6602 14.75C17.7333 14.8767 17.7718 15.0204 17.7718 15.1667C17.7718 15.3129 17.7333 15.4566 17.6602 15.5833C17.587 15.71 17.4818 15.8152 17.3552 15.8884C17.2285 15.9615 17.0848 16 16.9385 16H1.06183C0.915549 16 0.771848 15.9615 0.645169 15.8884C0.518489 15.8152 0.413294 15.71 0.340156 15.5833C0.267018 15.4566 0.228515 15.3129 0.228516 15.1667C0.228517 15.0204 0.267022 14.8767 0.340161 14.75L8.27849 1C8.35164 0.873331 8.45683 0.768142 8.58351 0.695009C8.71019 0.621875 8.85389 0.583374 9.00016 0.583374C9.14643 0.583374 9.29013 0.621875 9.41681 0.695009C9.54349 0.768142 9.64868 0.873331 9.72183 1ZM8.16683 11.8333V13.5H9.83349V11.8333H8.16683ZM8.16683 6V10.1667H9.83349V6H8.16683Z" fill="#FF6E70"/>
</svg>
