<svg width="20" height="21" viewBox="0 0 20 21" fill="none" xmlns="http://www.w3.org/2000/svg">
<path d="M5.83342 4.66683V2.16683C5.83342 1.94582 5.92121 1.73385 6.07749 1.57757C6.23377 1.42129 6.44573 1.3335 6.66675 1.3335H13.3334C13.5544 1.3335 13.7664 1.42129 13.9227 1.57757C14.079 1.73385 14.1667 1.94582 14.1667 2.16683V4.66683H17.5001C17.7211 4.66683 17.9331 4.75463 18.0893 4.91091C18.2456 5.06719 18.3334 5.27915 18.3334 5.50016V17.1668C18.3334 17.3878 18.2456 17.5998 18.0893 17.7561C17.9331 17.9124 17.7211 18.0002 17.5001 18.0002H2.50008C2.27907 18.0002 2.06711 17.9124 1.91083 17.7561C1.75455 17.5998 1.66675 17.3878 1.66675 17.1668V5.50016C1.66675 5.27915 1.75455 5.06719 1.91083 4.91091C2.06711 4.75463 2.27907 4.66683 2.50008 4.66683H5.83342ZM13.3334 13.0002H10.8334V13.8335H9.16675V13.0002H6.66675V16.3335H13.3334V13.0002ZM6.66675 6.3335V11.3335H9.16675V10.5002H10.8334V11.3335H13.3334V6.3335H6.66675ZM5.00008 11.3335V6.3335H3.33341V11.3335H5.00008ZM15.0001 11.3335H16.6667V6.3335H15.0001V11.3335ZM5.00008 13.0002H3.33341V16.3335H5.00008V13.0002ZM15.0001 13.0002V16.3335H16.6667V13.0002H15.0001ZM7.50008 3.00016V4.66683H12.5001V3.00016H7.50008Z" fill="#999999"/>
</svg>
