<svg width="21" height="21" viewBox="0 0 21 21" fill="none" xmlns="http://www.w3.org/2000/svg">
<path d="M16.031 14.6168L20.314 18.8988L18.899 20.3138L14.617 16.0308C13.0237 17.308 11.042 18.0027 9 17.9998C4.032 17.9998 0 13.9678 0 8.9998C0 4.0318 4.032 -0.000198364 9 -0.000198364C13.968 -0.000198364 18 4.0318 18 8.9998C18.0029 11.0418 17.3082 13.0235 16.031 14.6168ZM14.025 13.8748C15.2941 12.5697 16.0029 10.8202 16 8.9998C16 5.1318 12.867 1.9998 9 1.9998C5.132 1.9998 2 5.1318 2 8.9998C2 12.8668 5.132 15.9998 9 15.9998C10.8204 16.0027 12.5699 15.2939 13.875 14.0248L14.025 13.8748Z" fill="#999999"/>
</svg>
